<svg width="30" height="30" viewBox="0 0 30 30" fill="none" xmlns="http://www.w3.org/2000/svg">
<path d="M15 0C7.59375 0 0 1.59375 0 13.125C0 19.3125 2.15625 23.1562 6.5625 24.9375V28.4062C6.5625 29.0625 6.9375 29.625 7.5 29.9062C7.6875 30 7.96875 30 8.15625 30C8.53125 30 9 29.8125 9.28125 29.5312L12.6562 26.1562C13.4062 26.1562 14.1562 26.25 15 26.25C22.4062 26.25 30 24.6562 30 13.125C30 1.59375 22.4062 0 15 0Z" fill="#7B519C"/>
<path d="M14.5312 8.53125C16.7812 8.53125 18.6562 10.4062 18.6562 12.6562C18.6562 13.2188 19.0312 13.5938 19.5937 13.5938C20.1562 13.5938 20.5312 13.2188 20.5312 12.6562C20.5312 9.375 17.8125 6.65625 14.5312 6.65625C13.9687 6.65625 13.5938 7.03125 13.5938 7.59375C13.5938 8.15625 13.9687 8.53125 14.5312 8.53125Z" fill="white"/>
<path d="M14.5312 11.4375C15.1875 11.4375 15.75 12 15.75 12.6563C15.75 13.2188 16.125 13.5938 16.6875 13.5938C17.25 13.5938 17.625 13.2188 17.625 12.6563C17.625 10.9688 16.2187 9.5625 14.5312 9.5625C13.9687 9.5625 13.5938 9.9375 13.5938 10.5C13.5938 11.0625 13.9687 11.4375 14.5312 11.4375Z" fill="white"/>
<path d="M14.5312 3.75C13.9687 3.75 13.5938 4.125 13.5938 4.6875C13.5938 5.25 13.9687 5.625 14.5312 5.625C18.375 5.625 21.5625 8.8125 21.5625 12.6562C21.5625 13.2188 21.9375 13.5938 22.5 13.5938C23.0625 13.5938 23.4375 13.2188 23.4375 12.6562C23.4375 7.78125 19.4062 3.75 14.5312 3.75Z" fill="white"/>
<path d="M20.5313 16.0312L20.3438 15.9375C20.3438 15.9375 18.2813 14.9062 17.9063 14.8125C17.1563 14.5312 16.4063 14.7188 15.9375 15.375L15.8438 15.5625C15.6563 15.8438 15.375 16.2188 15.1875 16.4062C14.7188 16.2188 13.875 15.8438 12.75 14.9062C12 14.25 11.4375 13.4062 11.1563 12.9375C11.25 12.8438 11.25 12.8438 11.3438 12.75C11.4375 12.6563 11.5313 12.5625 11.625 12.4688C11.8125 12.2812 11.9063 12.0938 12.0938 11.8125C12.2813 11.3438 12.2813 10.875 12.0938 10.3125C12 10.125 11.625 9.28125 11.3438 8.625L10.9688 7.875C10.5938 6.9375 10.0313 6.75 9.375 6.75C9.28125 6.5625 9.1875 6.5625 9 6.5625C8.25 6.5625 7.59375 6.84375 7.125 7.3125C6.65625 7.78125 5.625 8.8125 5.625 10.875C5.625 12.5625 6.65625 14.1562 7.21875 15L7.3125 15.0938C9.09375 17.7188 11.3438 19.5938 13.5938 20.5312C15.5625 21.375 16.6875 21.5625 17.4375 21.5625C17.8125 21.5625 18.0938 21.5625 18.2813 21.4688C19.5 21.1875 20.9063 20.3438 21.2813 19.2188C21.4688 18.5625 21.75 17.4375 21.375 16.7812C21.1875 16.4062 20.8125 16.2188 20.5313 16.0312Z" fill="white"/>
</svg>
