<svg width="31" height="31" viewBox="0 0 31 31" fill="none" xmlns="http://www.w3.org/2000/svg">
<path d="M16.4688 0C8.42812 0 1.9375 6.49062 1.9375 14.5312C1.9375 17.825 3.00312 20.925 5.0375 23.4438L3.00312 29.6438C2.90625 30.0312 3.00313 30.4188 3.29375 30.7094C3.39063 30.9031 3.68125 31 3.875 31C3.97187 31 4.16563 31 4.2625 30.9031L10.9469 27.9C12.6906 28.675 14.5312 29.0625 16.4688 29.0625C24.5094 29.0625 31 22.5719 31 14.5312C31 6.49062 24.5094 0 16.4688 0Z" fill="#25D366"/>
<path d="M24.8969 19.8594C24.5094 21.0219 23.0563 21.9906 21.7969 22.1844C21.5063 22.2812 21.2156 22.2812 20.8281 22.2812C20.0531 22.2812 18.8906 22.0875 16.8562 21.2156C14.5312 20.2469 12.2062 18.2125 10.3656 15.5969V15.5C9.78437 14.6281 8.71875 12.9813 8.71875 11.2375C8.71875 9.10625 9.78438 8.04063 10.1719 7.55625C10.6563 7.07188 11.3344 6.78125 12.1094 6.78125C12.3031 6.78125 12.4 6.78125 12.5938 6.78125C13.2719 6.78125 13.7562 6.975 14.2406 7.94375L14.6281 8.71875C14.9188 9.49375 15.3063 10.3656 15.4031 10.4625C15.6937 11.0438 15.6937 11.5281 15.4031 12.0125C15.3063 12.3031 15.1125 12.4969 14.9187 12.6906C14.8219 12.8844 14.725 12.9812 14.6281 12.9812C14.5313 13.0781 14.5312 13.0781 14.4344 13.175C14.725 13.6594 15.3063 14.5312 16.0813 15.2094C17.2438 16.275 18.1156 16.5656 18.6 16.7594C18.7938 16.5656 18.9875 16.1781 19.2781 15.8875L19.375 15.6938C19.8594 15.0156 20.6344 14.8219 21.4094 15.1125C21.7969 15.3063 23.9281 16.275 23.9281 16.275L24.1219 16.3719C24.4125 16.5656 24.8 16.6625 24.9937 17.05C25.3813 17.9219 25.0906 19.1812 24.8969 19.8594Z" fill="white"/>
</svg>
